<?xml version="1.0" encoding="iso-8859-1"?>
<!-- Generator: Adobe Illustrator 19.0.0, SVG Export Plug-In . SVG Version: 6.00 Build 0)  -->
<svg xmlns="http://www.w3.org/2000/svg" xmlns:xlink="http://www.w3.org/1999/xlink" version="1.1" id="Layer_1" x="0px" y="0px" viewBox="0 0 502 502" style="enable-background:new 0 0 502 502;" xml:space="preserve" width="512" height="512">
<g>
	<g>
		<g>
			<path style="fill:#50A5DC;" d="M461.494,10H364.89c-16.848,0-30.506,13.658-30.506,30.506s13.658,30.506,30.506,30.506h22.955     l-88.807,88.807c-29.931-21.334-66.525-33.896-106-33.896C92.111,125.924,10,208.034,10,308.962S92.111,492,193.038,492     s183.038-82.11,183.038-183.038c0-39.474-12.562-76.069-33.896-106l88.807-88.807v22.955c0,16.848,13.658,30.506,30.506,30.506     S492,153.958,492,137.11V40.506C492,23.658,478.342,10,461.494,10z M193.038,430.987c-67.285,0-122.025-54.74-122.025-122.025     s54.741-122.025,122.025-122.025s122.025,54.74,122.025,122.025S260.323,430.987,193.038,430.987z"/>
			<path d="M193.038,502C86.597,502,0,415.403,0,308.962s86.597-193.038,193.038-193.038c37.485,0,73.532,10.683,104.78,30.973     l65.901-65.901c-21.797-0.622-39.336-18.546-39.336-40.49C324.384,18.171,342.555,0,364.891,0h96.604     C483.829,0,502,18.171,502,40.506v96.604c0,22.335-18.171,40.506-40.506,40.506c-21.944,0-39.869-17.54-40.49-39.336     l-65.9,65.901c20.289,31.248,30.973,67.295,30.973,104.781C386.076,415.403,299.479,502,193.038,502z M193.038,135.924     C97.625,135.924,20,213.548,20,308.962S97.625,482,193.038,482s173.038-77.625,173.038-173.038     c0-36.143-11.079-70.79-32.039-100.195c-2.836-3.978-2.383-9.421,1.071-12.875l88.808-88.807c2.86-2.86,7.161-3.717,10.898-2.168     c3.736,1.548,6.173,5.194,6.173,9.239v22.955c0,11.307,9.199,20.506,20.507,20.506c11.307,0,20.506-9.199,20.506-20.506V40.506     C482,29.199,472.801,20,461.494,20h-96.604c-11.308,0-20.507,9.199-20.507,20.506s9.199,20.506,20.507,20.506h22.954     c4.045,0,7.691,2.437,9.239,6.173c1.547,3.736,0.691,8.038-2.168,10.898l-88.808,88.808c-3.453,3.454-8.896,3.907-12.876,1.072     C263.827,147.003,229.18,135.924,193.038,135.924z M193.038,440.987c-72.799,0-132.025-59.226-132.025-132.025     s59.227-132.025,132.025-132.025s132.025,59.226,132.025,132.025S265.837,440.987,193.038,440.987z M193.038,196.937     c-61.771,0-112.025,50.254-112.025,112.025s50.254,112.025,112.025,112.025s112.025-50.254,112.025-112.025     S254.81,196.937,193.038,196.937z"/>
		</g>
	</g>
	<g>
		<path d="M52.289,261.235c-1.265,0-2.551-0.241-3.794-0.751c-5.109-2.098-7.551-7.939-5.453-13.049    c12.692-30.916,34.328-56.802,62.57-74.859c4.65-2.976,10.836-1.616,13.812,3.038s1.615,10.837-3.038,13.812    c-24.757,15.83-43.721,38.516-54.842,65.605C59.957,258.896,56.225,261.235,52.289,261.235z"/>
	</g>
	<g>
		<path d="M41,318.732c-5.522,0-10-4.477-10-10c0-8.386,0.649-16.811,1.931-25.039c0.85-5.457,5.968-9.192,11.419-8.342    c5.457,0.85,9.192,5.962,8.343,11.419C51.569,293.984,51,301.373,51,308.732C51,314.255,46.522,318.732,41,318.732z"/>
	</g>
</g>















</svg>
